<?xml version="1.0" encoding="UTF-8"?>
<svg version="1.1" viewBox="0 0 175 63" xmlns="http://www.w3.org/2000/svg" xmlns:cc="http://creativecommons.org/ns#" xmlns:dc="http://purl.org/dc/elements/1.1/" xmlns:rdf="http://www.w3.org/1999/02/22-rdf-syntax-ns#">
<metadata>
<rdf:RDF>
<cc:Work rdf:about="">
<dc:format>image/svg+xml</dc:format>
<dc:type rdf:resource="http://purl.org/dc/dcmitype/StillImage"/>
<dc:title/>
</cc:Work>
</rdf:RDF>
</metadata>
<g transform="translate(0 .33332)" fill="#6b6b6b">
<path d="m67.021 52.206v-36.746h6.328v16.712h0.09774l13.047-16.712h7.8672l-14.415 18.202 15.588 18.544h-8.1116l-13.975-16.59h-0.09774v16.59z"/>
<path d="m99.98 52.206v-39.776h6.1325v39.776z"/>
<path d="m125.95 47.637c1.1728 0 2.4188-0.12217 3.7137-0.39092 1.2949-0.24433 2.5898-0.6108 3.9336-1.0995v5.2041c-0.80628 0.36649-2.0279 0.70854-3.6404 1.0506-1.637 0.31762-3.3472 0.48864-5.1064 0.48864-1.7591 0-3.445-0.24432-5.0575-0.70854-1.5881-0.51308-2.9807-1.2949-4.1535-2.3699-1.1972-1.075-2.15-2.4921-2.8342-4.2024-0.70854-1.7347-1.0506-3.8115-1.0506-6.2547 0-2.4188 0.34206-4.5444 0.97731-6.3524 0.65967-1.808 1.5392-3.3228 2.6387-4.4956 1.0994-1.1972 2.3699-2.0768 3.787-2.6631 1.4171-0.61081 2.883-0.904 4.3978-0.904 1.5881 0 3.054 0.24433 4.3734 0.7574 1.3438 0.51308 2.4921 1.3193 3.4694 2.4188s1.7347 2.5165 2.2722 4.2512c0.53751 1.7347 0.83069 3.7626 0.83069 6.1325-0.0244 0.904-0.049 1.6858-0.0977 2.3211h-16.394c0.0977 1.2461 0.34205 2.2966 0.78182 3.1762 0.41535 0.85513 0.97731 1.5637 1.6858 2.1012 0.6841 0.53752 1.5148 0.92844 2.4432 1.1728 0.92843 0.24432 1.9302 0.36649 3.0296 0.36649zm-2.4677-17.616c-0.78183 0-1.4659 0.1466-2.0523 0.46422-0.61081 0.29319-1.1483 0.70854-1.5881 1.2216-0.41536 0.51308-0.78184 1.1239-1.0262 1.808-0.26877 0.70854-0.4398 1.4415-0.5131 2.2233h9.8463c0-0.78183-0.12217-1.5148-0.31762-2.2233-0.19547-0.68411-0.48866-1.2949-0.87957-1.808-0.39092-0.51308-0.85514-0.92842-1.4415-1.2216-0.58638-0.31762-1.2461-0.46422-2.0279-0.46422z"/>
<path d="m140.49 12.43h6.1081v23.944h0.14662l9.5286-10.775h7.574l-10.995 12.485 11.068 14.122h-7.4274l-9.773-12.387h-0.12217v12.387h-6.1081z"/>
<path d="m167.66 25.599h6.1325v26.607h-6.1325zm-0.14659-13.169h6.4257v7.061h-6.4257z"/>
<path d="m0.74691 3.8395c-0.01861-0.0077557 7.443-2.614 17.289-3.1622 1.4879-0.086593 2.921-0.15373 4.2998-0.20045 0.68934-0.023343 1.3651-0.041685 2.0275-0.054827 0.3311-0.006551 0.65885-0.011765 0.98337-0.015642 0.32453-0.004011 0.64556-0.006551 0.96337-0.007754 2.5428-0.009894 4.8727 0.065041 7.0088 0.24242 4.2707 0.35614 7.7773 1.1203 10.661 2.5246 2.8768 1.3977 5.8195 3.6687 7.8278 6.7797 1.0016 1.5512 1.7652 3.3023 2.1406 5.2126 0.04701 0.23878 0.0877 0.48008 0.12212 0.72375 0.03446 0.24368 0.06225 0.48973 0.08351 0.73816 0.04239 0.49686 0.05792 1.0031 0.04379 1.5183-0.02835 1.0305-0.17499 2.0966-0.46301 3.197-1.3706 5.198-4.378 7.4539-4.3652 7.4531 1.9409 5.9205 4.3999 8.8428 5.8096 10.559 0.70221 0.86307 1.1385 1.436 1.097 1.9711-0.04365 0.53583-0.55994 1.0313-1.815 1.7605-1.7323 1.0102-4.0665 1.0237-4.0685 1.0223 0.67759 2.2529 1.4426 3.6838-1.0516 4.3685-5.3494 1.4892-12.384-1.1281-17.165-3.5178-2.439-1.2223-4.5722-2.3065-4.5718-2.306 2.768 3.2355 3.5961 3.9799 8.2325 6.8502 2.9263 1.8207 9.2568 3.3984 11.834 3.2538 1.147-0.05945 1.4742 0.11526 1.0979 1.7656-1.2885 5.5144-3.5692 7.2158-8.7029 7.6833-0.14184 0.01284-0.29571 0.0213-0.46091 0.02501-0.16534 0.0036-0.34187 0.0028-0.52903-0.0028-0.37447-0.01136-0.79132-0.04182-1.2452-0.09246-0.90784-0.10142-1.9637-0.28369-3.122-0.55394-2.3162-0.53922-5.389-1.6051-8.1424-2.8715-5.5042-2.5343-11.101-6.5257-13.406-11.953-4.0702-9.6238 0.69479-19.335 4.6144-23.808 3.1183-3.5119 5.1193-4.4261 5.4911-6.1803 0.2799-1.3311-0.30298-3.6879-3.4424-5.2554-9.2541-4.6254-15.711-5.3932-19.076-7.6657zm39.009 23.201c-1.5677 1.5909-2.3821 7.3019-0.55855 9.9591 1.0249 1.4693 3.2398 2.4299 4.3716 1.0702 1.0546-1.2584 1.6559-6.1905-0.41237-9.7362-1.5618-2.6874-2.862-1.8361-3.4007-1.2931z" fill-rule="evenodd" stroke-width=".13988"/>
</g>
</svg>
